<svg width="10" height="12" viewBox="0 0 10 12" fill="none" xmlns="http://www.w3.org/2000/svg">
<path d="M2.33398 5.54171V7.00004M2.33398 5.54171V2.04171C2.33398 1.55878 2.72606 1.16671 3.20898 1.16671C3.69191 1.16671 4.08398 1.55878 4.08398 2.04171M2.33398 5.54171C2.33398 5.05878 1.94191 4.66671 1.45898 4.66671C0.976059 4.66671 0.583984 5.05878 0.583984 5.54171V6.70837C0.583984 9.123 2.54436 11.0834 4.95898 11.0834C7.37361 11.0834 9.33398 9.123 9.33398 6.70837V3.79171C9.33398 3.30878 8.94191 2.91671 8.45898 2.91671C7.97606 2.91671 7.58398 3.30878 7.58398 3.79171M4.08398 2.04171V5.25004M4.08398 2.04171V1.45837C4.08398 0.975448 4.47606 0.583374 4.95898 0.583374C5.44191 0.583374 5.83398 0.975448 5.83398 1.45837V2.04171M5.83398 2.04171V5.25004M5.83398 2.04171C5.83398 1.55878 6.22606 1.16671 6.70898 1.16671C7.19191 1.16671 7.58398 1.55878 7.58398 2.04171V3.79171M7.58398 3.79171V5.25004" stroke="white" stroke-width="1.16667" stroke-linecap="round" stroke-linejoin="round"/>
</svg>
